:version 1.10
:name ASF
:units
  mass 1
  length 1
  angle deg
:documentation
  ASF file generated by Kaydara
:root
  axis xyz
  order  tx ty tz rx ry rz
  position 0 0 0
  orientation 0 0 0
:bonedata
  begin
    id 1
    name RightUpLegDummy
    direction -0.718183 -0.695806 0.00816078
    length 4.904
    axis 0 0 0 xyz
  end
  begin
    id 2
    name RightUpLeg
    direction 3.53373e-006 -0.995788 0.0916898
    length 17.4976
    axis -3.49089 -0.000906625 0.000286804 xyz
    dof rx ry rz
  end
  begin
    id 3
    name RightLeg
    direction 0.00371092 -0.995096 -0.0988419
    length 16.5821
    axis 3.68512 0.0193738 -0.131023 xyz
    dof rx ry rz
  end
  begin
    id 4
    name RightFoot
    direction 0.00079151 -0.46099 0.887405
    length 3.77069
    axis 4.81691e-005 -0.120479 -0.188788 xyz
    dof rx ry rz
  end
  begin
    id 5
    name RightToes
    direction 0 0 0
    length 0
    axis 0 0 0 xyz
    dof rx ry rz
  end
  begin
    id 6
    name SpineDummy
    direction 8.3039e-015 1 4.57515e-016
    length 4.6813
    axis 0 0 0 xyz
  end
  begin
    id 7
    name Spine
    direction -3.15643e-008 0.999988 0.00495137
    length 10.1015
    axis -0.001389 0.000121418 2.40972e-006 xyz
    dof rx ry rz
  end
  begin
    id 8
    name Spine1
    direction 0 0 0
    length 0
    axis -0.001389 0.000121451 1.30017e-006 xyz
    dof rx ry rz
  end
  begin
    id 9
    name HEadDummy
    direction -1.99912e-008 0.999999 0.00127422
    length 3.43865
    axis -0.001389 0.000121451 1.30017e-006 xyz
  end
  begin
    id 10
    name HEad
    direction 0 0 0
    length 0
    axis 0 0 0 xyz
    dof rx ry rz
  end
  begin
    id 11
    name LeftShoulder1Dummy
    direction 0.998891 -0.0402509 -0.0244456
    length 3.5433
    axis -0.001389 0.000121451 1.30017e-006 xyz
  end
  begin
    id 12
    name LeftShoulder1
    direction 0.99951 -0.000327763 0.0313091
    length 4.05031
    axis -0.001389 0.000121451 1.30017e-006 xyz
    dof rx ry rz
  end
  begin
    id 13
    name LeftArm
    direction 0.998561 -0.00100056 -0.0536182
    length 10.3537
    axis -23.1894 0.134784 0.967509 xyz
    dof rx ry rz
  end
  begin
    id 14
    name LeftForeArm
    direction 0.998903 0.00866432 0.046012
    length 8.70632
    axis -9.91835 -0.06569 -0.177794 xyz
    dof rx ry rz
  end
  begin
    id 15
    name LeftHand
    direction 0 0 0
    length 0
    axis 0 0 0 xyz
    dof rx ry rz
  end
  begin
    id 16
    name RightShoulderDummy
    direction -0.998891 -0.0402509 -0.0244414
    length 3.5433
    axis -0.001389 0.000121451 1.30017e-006 xyz
  end
  begin
    id 17
    name RightShoulder
    direction -0.99951 -0.000327807 0.0313133
    length 4.05031
    axis 0.215806 0.000203643 -0.0068026 xyz
    dof rx ry rz
  end
  begin
    id 18
    name RightArm
    direction -0.998573 -0.000999564 -0.053403
    length 10.3947
    axis -23.2009 -0.134239 -0.964101 xyz
    dof rx ry rz
  end
  begin
    id 19
    name RightForeArm
    direction -0.998898 0.00868028 0.0461306
    length 8.68355
    axis -9.92322 0.0658061 0.178868 xyz
    dof rx ry rz
  end
  begin
    id 20
    name RightHand
    direction 0 0 0
    length 0
    axis 0 0 0 xyz
    dof rx ry rz
  end
  begin
    id 21
    name LeftUpLegDummy
    direction 0.718183 -0.695806 0.00816078
    length 4.904
    axis 0 0 0 xyz
  end
  begin
    id 22
    name LeftUpLeg
    direction -6.81752e-006 -0.995793 0.0916337
    length 17.4976
    axis -3.48766 0.00143442 -0.000524262 xyz
    dof rx ry rz
  end
  begin
    id 23
    name LeftLeg
    direction -0.00601358 -0.995091 -0.0987824
    length 16.5821
    axis 3.68178 -0.00654042 -0.000285133 xyz
    dof rx ry rz
  end
  begin
    id 24
    name LeftFoot
    direction -0.00417578 -0.460984 0.887399
    length 3.77069
    axis 1.87233e-006 4.66016e-005 -8.6538e-006 xyz
    dof rx ry rz
  end
  begin
    id 25
    name LeftToes
    direction 0 0 0
    length 0
    axis 0 0 0 xyz
    dof rx ry rz
  end
:hierarchy
  begin
    root RightUpLegDummy SpineDummy LeftUpLegDummy
    RightUpLegDummy RightUpLeg
    RightUpLeg RightLeg
    RightLeg RightFoot
    RightFoot RightToes
    SpineDummy Spine
    Spine Spine1
    Spine1 HEadDummy LeftShoulder1Dummy RightShoulderDummy
    HEadDummy HEad
    LeftShoulder1Dummy LeftShoulder1
    LeftShoulder1 LeftArm
    LeftArm LeftForeArm
    LeftForeArm LeftHand
    RightShoulderDummy RightShoulder
    RightShoulder RightArm
    RightArm RightForeArm
    RightForeArm RightHand
    LeftUpLegDummy LeftUpLeg
    LeftUpLeg LeftLeg
    LeftLeg LeftFoot
    LeftFoot LeftToes
  end

:SAMPLES-PER-SECOND 30
:FULLY-SPECIFIED
:DEGREES
560
root  14.8736 40.6636 9.89741 153.612 87.0654 155.525
RightUpLeg  2.84338 -11.6842 -12.358
RightLeg  5.08992 -10.97 2.85621
RightFoot  -0.29525 -0.409929 4.14501
RightToes  0.000481921 0.542163 -0.142578
Spine  -3.9009 2.7815 3.14592
Spine1  15.1806 2.92141 -0.162612
HEad  14.3207 -7.70283 1.83738
LeftShoulder1  9.98587 -14.5344 -48.3305
LeftArm  -6.46206 13.8905 -25.8233
LeftForeArm  174.975 -55.7384 -165.72
LeftHand  -0.25398 0.0180481 5.50724
RightShoulder  5.29507 9.60319 34.4461
RightArm  0.148377 29.8436 35.9906
RightForeArm  -14.0471 25.745 6.02051
RightHand  -3.08343 10.7088 -22.4203
LeftUpLeg  2.67184 7.41195 8.63365
LeftLeg  0.327097 12.4873 -3.32053
LeftFoot  3.01691 0.742726 -6.03002
LeftToes  1.06245e-005 4.65869e-005 -8.65517e-006
561
root  14.8793 40.6635 9.89814 153.758 87.1036 155.667
RightUpLeg  2.84739 -11.683 -12.3378
RightLeg  5.08292 -10.9392 2.87404
RightFoot  -0.325021 -0.411526 4.17193
RightToes  0.000481921 0.542163 -0.142578
Spine  -3.97219 2.64951 2.88513
Spine1  15.3272 2.71874 0.0604551
HEad  14.1223 -6.95044 1.75617
LeftShoulder1  9.9142 -14.4185 -48.2934
LeftArm  -6.74165 14.0539 -25.8476
LeftForeArm  174.964 -55.7188 -165.729
LeftHand  -0.25398 0.0180481 5.50724
RightShoulder  5.30693 9.48696 34.8923
RightArm  -1.84901 26.8992 35.3845
RightForeArm  -11.6666 32.637 7.84737
RightHand  -3.25011 10.7671 -23.4933
LeftUpLeg  2.67896 7.43362 8.67383
LeftLeg  0.36377 12.4377 -3.31645
LeftFoot  2.97212 0.744016 -6.05392
LeftToes  1.06245e-005 4.65869e-005 -8.65517e-006
562
root  14.8805 40.6635 9.89889 153.795 87.1229 155.727
RightUpLeg  2.87144 -11.6798 -12.3308
RightLeg  5.08153 -10.9219 2.88233
RightFoot  -0.33951 -0.411047 4.16664
RightToes  0.000481921 0.542163 -0.142578
Spine  -3.93982 2.46967 2.51663
Spine1  15.3329 2.42765 0.425898
HEad  14.0726 -6.14191 1.4945
LeftShoulder1  9.87091 -14.3332 -48.3126
LeftArm  -7.03829 14.3879 -25.8826
LeftForeArm  175.081 -55.6428 -165.777
LeftHand  -0.25398 0.0180481 5.50724
RightShoulder  5.35119 9.44139 35.3698
RightArm  -2.89591 24.1044 34.8394
RightForeArm  -9.89653 39.2174 9.72734
RightHand  -3.38667 10.7591 -24.4424
LeftUpLeg  2.70498 7.42372 8.68189
LeftLeg  0.364389 12.4563 -3.29441
LeftFoot  2.96511 0.745298 -6.0784
LeftToes  1.06245e-005 4.65869e-005 -8.65517e-006
563
root  14.8817 40.6636 9.89967 153.547 87.1655 155.474
RightUpLeg  2.85994 -11.6708 -12.3153
RightLeg  5.06106 -10.9019 2.88452
RightFoot  -0.321771 -0.409336 4.14222
RightToes  0.000481921 0.542163 -0.142578
Spine  -3.94722 2.28509 2.14153
Spine1  15.3617 2.10827 0.862869
HEad  14.1906 -5.43131 1.11796
LeftShoulder1  9.84017 -14.258 -48.3666
LeftArm  -7.28753 14.7007 -25.9365
LeftForeArm  175.291 -55.5416 -165.846
LeftHand  -0.25398 0.0180481 5.50724
RightShoulder  5.36631 9.39289 35.6371
RightArm  -3.55394 21.5712 34.4778
RightForeArm  -8.39 45.265 11.8646
RightHand  -3.49365 10.7272 -25.2233
LeftUpLeg  2.72104 7.39835 8.66883
LeftLeg  0.307128 12.5673 -3.2771
LeftFoot  2.99178 0.7461 -6.09614
LeftToes  1.06245e-005 4.65869e-005 -8.65517e-006
564
root  14.8823 40.6637 9.9008 153.145 87.2609 155.021
RightUpLeg  2.80515 -11.6326 -12.2623
RightLeg  5.00296 -10.8747 2.87975
RightFoot  -0.289776 -0.410542 4.16306
RightToes  0.000481921 0.542163 -0.142578
Spine  -4.05411 2.13796 1.86279
Spine1  15.5182 1.84087 1.23517
HEad  14.3748 -5.04957 0.817641
LeftShoulder1  9.80272 -14.1644 -48.4383
LeftArm  -7.4241 14.742 -25.9114
LeftForeArm  175.445 -55.4793 -165.889
LeftHand  -0.25398 0.0180481 5.50724
RightShoulder  5.31066 9.26201 35.6279
RightArm  -4.09616 19.2544 34.4087
RightForeArm  -6.44602 50.9702 14.393
RightHand  -3.51754 10.4492 -25.8088
LeftUpLeg  2.705 7.40279 8.68491
LeftLeg  0.261865 12.6867 -3.28272
LeftFoot  3.00621 0.746706 -6.11163
LeftToes  1.06245e-005 4.65869e-005 -8.65517e-006
565
root  14.8819 40.6638 9.90382 152.644 87.3824 154.477
RightUpLeg  2.7527 -11.57 -12.1889
RightLeg  4.94197 -10.8358 2.85978
RightFoot  -0.270752 -0.414282 4.22322
RightToes  0.000481921 0.542163 -0.142578
Spine  -4.14025 2.01808 1.64758
Spine1  15.6934 1.63555 1.49361
HEad  14.5135 -4.93667 0.673552
LeftShoulder1  9.76895 -14.0695 -48.5326
LeftArm  -7.49442 14.55 -25.7237
LeftForeArm  175.415 -55.4509 -165.901
LeftHand  -0.25398 0.0180481 5.50724
RightShoulder  5.24861 9.11771 35.6125
RightArm  -4.62648 17.0647 34.3618
RightForeArm  -3.19189 56.4833 17.5165
RightHand  -3.40445 9.7962 -26.0328
LeftUpLeg  2.68308 7.43486 8.73066
LeftLeg  0.276097 12.764 -3.29383
LeftFoot  2.99187 0.747068 -6.12415
LeftToes  1.06245e-005 4.65869e-005 -8.65517e-006
566
root  14.8792 40.664 9.9054 151.826 87.4909 153.655
RightUpLeg  2.71941 -11.5173 -12.1399
RightLeg  4.92402 -10.7719 2.82829
RightFoot  -0.261192 -0.415205 4.23962
RightToes  0.000481921 0.542163 -0.142578
Spine  -4.08533 1.89152 1.42189
Spine1  15.719 1.45731 1.66395
HEad  14.6043 -4.8268 0.58424
LeftShoulder1  9.74652 -14.005 -48.5998
LeftArm  -7.57427 14.4005 -25.4988
LeftForeArm  175.233 -55.3975 -165.914
LeftHand  -0.25398 0.0180481 5.50724
RightShoulder  5.25613 9.06773 35.8325
RightArm  -5.0329 14.9779 34.0298
RightForeArm  1.18565 61.6501 21.4659
RightHand  -3.22918 9.12242 -25.8421
LeftUpLeg  2.68886 7.45216 8.75524
LeftLeg  0.303502 12.8455 -3.2898
LeftFoot  2.97962 0.746418 -6.12178
LeftToes  1.06245e-005 4.65869e-005 -8.65517e-006
567
root  14.8749 40.6643 9.90327 150.484 87.587 152.316
RightUpLeg  2.67506 -11.4991 -12.1305
RightLeg  4.93902 -10.6749 2.80617
RightFoot  -0.242116 -0.412225 4.19538
RightToes  0.000481921 0.542163 -0.142578
Spine  -3.9485 1.75681 1.2013
Spine1  15.5971 1.29543 1.76705
HEad  14.7367 -4.67512 0.459991
LeftShoulder1  9.72188 -13.97 -48.5737
LeftArm  -7.65638 14.4397 -25.4534
LeftForeArm  175.06 -55.3025 -165.948
LeftHand  -0.25398 0.0180481 5.50724
RightShoulder  5.30054 9.07663 36.1487
RightArm  -5.27098 13.0064 33.569
RightForeArm  6.08593 66.2533 26.533
RightHand  -3.1164 8.79931 -25.5217
LeftUpLeg  2.71381 7.44701 8.74136
LeftLeg  0.289995 12.9653 -3.28706
LeftFoot  2.98708 0.744487 -6.10033
LeftToes  1.06245e-005 4.65869e-005 -8.65517e-006
568
root  14.8738 40.6646 9.89819 148.98 87.6845 150.78
RightUpLeg  2.60396 -11.5023 -12.133
RightLeg  4.9422 -10.5698 2.80604
RightFoot  -0.218029 -0.411034 4.17886
RightToes  0.000481921 0.542163 -0.142578
Spine  -3.87745 1.63768 1.04125
Spine1  15.4789 1.15856 1.82683
HEad  14.9427 -4.66062 0.357484
LeftShoulder1  9.69285 -13.9464 -48.4938
LeftArm  -7.70092 14.5361 -25.613
LeftForeArm  175.023 -55.2187 -165.987
LeftHand  -0.25398 0.0180481 5.50724
RightShoulder  5.30466 9.03811 36.3067
RightArm  -5.46459 11.1501 33.3103
RightForeArm  12.0647 70.3037 33.2788
RightHand  -3.04583 8.55247 -25.3893
LeftUpLeg  2.7192 7.45717 8.73196
LeftLeg  0.259953 13.0696 -3.31289
LeftFoot  2.99008 0.742423 -6.07778
LeftToes  1.06245e-005 4.65869e-005 -8.65517e-006
569
root  14.8747 40.6648 9.89412 148.143 87.765 149.885
RightUpLeg  2.5263 -11.4989 -12.1152
RightLeg  4.92597 -10.5073 2.81508
RightFoot  -0.206988 -0.414257 4.23078
RightToes  0.000481921 0.542163 -0.142578
Spine  -3.911 1.53789 0.936516
Spine1  15.4646 1.03857 1.87741
HEad  15.1285 -4.78915 0.360012
LeftShoulder1  9.67565 -13.9301 -48.4525
LeftArm  -7.71144 14.517 -25.8128
LeftForeArm  175.114 -55.1963 -166.006
LeftHand  -0.25398 0.0180481 5.50724
RightShoulder  5.27057 8.93863 36.3693
RightArm  -5.70708 9.42914 33.1915
RightForeArm  20.7788 73.8481 42.713
RightHand  -2.91073 7.92006 -25.4068
LeftUpLeg  2.68348 7.49915 8.75988
LeftLeg  0.262724 13.0965 -3.35854
LeftFoot  2.96884 0.741601 -6.0757
LeftToes  1.06245e-005 4.65869e-005 -8.65517e-006
570
root  14.8744 40.665 9.89262 148.11 87.8081 149.804
RightUpLeg  2.4626 -11.4853 -12.0829
RightLeg  4.92377 -10.497 2.81519
RightFoot  -0.205266 -0.416399 4.26586
RightToes  0.000481921 0.542163 -0.142578
Spine  -3.96521 1.43826 0.830911
Spine1  15.5199 0.917509 1.93189
HEad  15.1969 -4.82824 0.432255
LeftShoulder1  9.669 -13.9192 -48.4493
LeftArm  -7.70828 14.3974 -25.9366
LeftForeArm  175.227 -55.2176 -166.004
LeftHand  -0.25398 0.0180481 5.50724
RightShoulder  5.25306 8.83942 36.5626
RightArm  -5.94723 7.87675 32.9419
RightForeArm  33.3883 76.6494 55.8641
RightHand  -2.72736 7.09857 -25.36
LeftUpLeg  2.63328 7.54149 8.79916
LeftLeg  0.287324 13.0754 -3.39335
LeftFoot  2.93924 0.741609 -6.08766
LeftToes  1.06245e-005 4.65869e-005 -8.65517e-006
